<svg id="Layer_1" data-name="Layer 1" xmlns="http://www.w3.org/2000/svg" viewBox="0 0 2567.74 2395.98"><defs><style>.cls-1{fill:none;stroke:#ffb703;stroke-linecap:round;stroke-linejoin:round;stroke-width:88.57px;}</style></defs><g id="g24615"><path id="path6163" class="cls-1" d="M1517.58,1808.9a247.32,247.32,0,0,0-66.53,257.68c19.89,61,63.08,112.3,113.55,151.9s108.28,68.61,166,96.59c81.21,39.37,166.45,79.88,220.88,151.86,23.07,30.5,39.53,65.4,60,97.66S2058,2627.5,2093,2643c29,12.8,62.3,14,93.18,6.9,19.76-4.56,39-12.58,54.72-25.37s27.8-30.63,31.56-50.56c2.45-12.93,1.38-26.38-2.07-39.08s-9.22-24.68-16.11-35.89c-13.78-22.41-31.95-41.77-47.39-63.08a311.07,311.07,0,0,1-58.67-176" transform="translate(-147.72 -302.49)"/><path id="path6167" class="cls-1" d="M1813.28,1820.5q-16,30.52-34.36,59.71c-13.91,22.09-28.85,43.61-40.75,66.85s-20.73,48.55-21.37,74.65c-.53,21.14,4.38,42.24,13,61.53s21,36.81,35.28,52.37c38.51,41.86,90.74,69.11,145,86.28,73.21,23.18,151.15,29.2,227.78,24.16,31.72-2.09,63.5-6.08,93.86-15.5s59.37-24.48,82.16-46.63c38.46-37.37,56.1-91.66,62.12-145,13.33-117.93-26.1-240.84-105.55-329" transform="translate(-147.72 -302.49)"/><path id="path6171" class="cls-1" d="M1433.79,2049.32a905.68,905.68,0,0,1-245-6.9c-89.89-14.88-181-45.59-245-110.44a287.89,287.89,0,0,1-69-114.15" transform="translate(-147.72 -302.49)"/><path id="path6175" class="cls-1" d="M617.89,947.67C516.28,919.91,402,943.32,319.53,1008.8s-131.25,171.43-127.29,276.69c3.54,94.15,48.67,186,121,246.29s170.84,88.14,264.08,74.65c61.08,88.61,157.83,151.87,263.5,172.29,121.74,23.52,253.41-11,348-91.22,26.27,48.21,77.15,82.13,131.75,87.84a172.24,172.24,0,0,0,125-37.16c50.28,65.61,130.27,107.51,212.83,111.48a285.38,285.38,0,0,0,250-125,230.22,230.22,0,0,0,233.1,47.29c58.32-20.81,106.66-65.14,138.51-118.24,50.61-84.38,60.17-192.15,25.2-284.12S2191.45,1203.44,2097.57,1174" transform="translate(-147.72 -302.49)"/><path id="path6839" class="cls-1" d="M401.1,938.45C418.07,816.88,479.24,702,570.6,620,685.47,516.9,847.36,468.46,1000,491.48" transform="translate(-147.72 -302.49)"/><path id="path6843" class="cls-1" d="M915.18,626.74A471.9,471.9,0,0,1,1783.39,772" transform="translate(-147.72 -302.49)"/><path id="path6847" class="cls-1" d="M1754.51,649.8a458.46,458.46,0,0,1,400.48,183c85.86,115,113,271.57,71,408.77" transform="translate(-147.72 -302.49)"/><path id="path6851" class="cls-1" d="M1604.47,453.74a292.63,292.63,0,0,1,287-100.64c95.31,20.24,178.26,91.33,212.83,182.42a234.53,234.53,0,0,1,260.13,371.61,266.95,266.95,0,0,1,212.82,456.06c52.29,36.45,87.27,96.68,93,160.15s-17.78,129-62.63,174.3c-43,43.39-104.72,67.53-165.73,64.79s-120.34-32.29-159.27-79.35" transform="translate(-147.72 -302.49)"/><path id="path7781" class="cls-1" d="M530.06,1201a297,297,0,0,1,496.6,199.31c94.06-91,223.82-144.18,354.72-145.26,167.73-1.38,333.77,84.91,429,223" transform="translate(-147.72 -302.49)"/><path id="path7955" class="cls-1" d="M756.4,812.54a318.25,318.25,0,0,1,354.72-47.3c90.82,45.52,157.12,136.93,172.16,237.4" transform="translate(-147.72 -302.49)"/><path id="path7959" class="cls-1" d="M1197.45,811.37a384,384,0,0,1,156.9-83.29c101-26.16,212.56-8.62,300.66,47.3" transform="translate(-147.72 -302.49)"/><path id="path7963" class="cls-1" d="M1185.44,1133.47c34.65-74.36,101.07-133.27,179-158.77,81-26.51,173.25-16.4,246.61,27" transform="translate(-147.72 -302.49)"/><path id="path7967" class="cls-1" d="M1658.39,1329.41a360.51,360.51,0,0,1,334.45-108.1" transform="translate(-147.72 -302.49)"/><path id="path8331" class="cls-1" d="M1756.36,910.51,1851,1079.42c-14.23-41.22-7.77-89,16.89-125,24.85-36.23,67.57-59.54,111.49-60.81" transform="translate(-147.72 -302.49)"/><path id="path8547" class="cls-1" d="M2246.21,1136.85a114.55,114.55,0,0,0,135.13,91.21" transform="translate(-147.72 -302.49)"/></g></svg>