<svg id="Layer_1" data-name="Layer 1" xmlns="http://www.w3.org/2000/svg" viewBox="0 0 2603.89 2593.69"><defs><style>.cls-1{fill:#e0f86c;}.cls-2{fill:#94ddde;}.cls-3{fill:#f34e48;}</style></defs><path class="cls-1" d="M1627.11,736.64V619.85c0-81.87-36.12-113.17-36.12-179.4,0-53,47-71,122.8-72.24H1945c99.93,0,181.8,77.06,181.8,169.77,0,49.36-21.67,93.91-57.79,125.22,63.82,26.48,108.36,85.48,108.36,154.11,0,93.91-81.87,171-181.8,171H1699.35l1.2-1.2C1633.13,984.67,1591,965.4,1591,916,1591,849.82,1627.11,818.51,1627.11,736.64Zm177-89.09h4.81c66.23,0,140.87-49.37,140.87-109.57,0-51.77-61.4-108.36-104.75-108.36-19.26,0-40.93,13.24-40.93,42.14Zm0,216.71c0,43.35,33.71,62.61,74.65,62.61,67.42,0,121.61-49.36,121.61-109.56S1946.17,709,1878.75,709H1804.1Z" transform="translate(-195.93 -202.49)"/><path class="cls-1" d="M2242.36,736.64V619.85c0-81.87-36.12-113.17-36.12-179.4,0-53,48.16-72.24,125.22-72.24H2565c99.94,0,193.85,73.45,193.85,165,0,54.18-34.92,103.55-84.28,133.65,51.77,20.46,87.89,56.58,87.89,110.76,0,63.82,37.33,86.69,37.33,138.47,0,53-48.16,71-125.22,71S2549.38,969,2549.38,916c0-51.78,36.13-74.65,36.13-138.47,0-42.13-62.61-80.66-109.57-80.66h-56.59v39.73c0,81.87,37.33,113.18,37.33,179.4,0,53-48.16,71-125.22,71S2206.24,969,2206.24,916C2206.24,849.82,2242.36,818.51,2242.36,736.64Zm203.48-308.23h-26.49v208.3h26.49c63.81,0,120.4-49.37,120.4-103.55S2509.65,428.41,2445.84,428.41Z" transform="translate(-195.93 -202.49)"/><path class="cls-1" d="M1595.59,1730.12c21.46-69,116.5-108.84,147.16-196.22L1819.4,1327c29.12-81.25,6.13-133.37,36.79-208.48,23-58.25,76.64-81.25,141-81.25,147.16,0,193.15,216.15,229.94,320.39l52.12,148.69c36.79,104.24,98.11,144.1,128.77,228.41,23,67.45-39.86,90.44-138,90.44s-168.63-23-191.62-90.44c-18.4-52.12-13.8-87.38-15.33-130.3h-256c-6.14,53.65,82.77,88.91,72,148.69-7.67,46-65.92,72.05-161,72.05C1649.24,1825.16,1572.59,1797.57,1595.59,1730.12Zm231.47-202.34h223.81l-59.78-170.16c-36.79-116.51-72-79.72-93.51-27.6Z" transform="translate(-195.93 -202.49)"/><path class="cls-1" d="M2492.36,1506.31V1357.62c0-104.24-46-144.1-46-228.41,0-67.45,61.32-92,159.42-92s159.43,24.53,159.43,92c0,84.31-47.52,124.17-47.52,228.41v148.69c0,104.24,47.52,144.1,47.52,228.41,0,67.45-61.32,90.44-159.43,90.44s-159.42-23-159.42-90.44C2446.38,1650.41,2492.36,1610.55,2492.36,1506.31Z" transform="translate(-195.93 -202.49)"/><path class="cls-1" d="M1681.1,2386.19V2198.45c0-102.12-46.56-133.66-46.56-208.75,0-55.57,39-78.1,96.12-78.1h45c126.16,0,286.86,240.3,390.49,386,25.53,37.54,99.12,129.16,96.12,124.65,1.5-7.51,1.5-15,1.5-24V2210.47c0-102.13-90.11-145.68-90.11-220.77,0-55.57,48.06-78.1,127.66-78.1,69.08,0,127.66,22.53,127.66,78.1,0,75.09-90.12,118.64-90.12,220.77V2398.2c0,102.13,46.56,133.67,46.56,208.76,0,55.57-39,76.59-96.12,76.59h-45.06c-126.15,0-286.85-238.79-389-386-24-31.54-97.62-123.16-97.62-124.66-1.49,9-1.49,16.52-1.49,25.53v187.74c0,100.62,90.1,145.68,90.1,220.77,0,55.57-48.06,76.59-127.66,76.59-69.08,0-127.65-21-127.65-76.59C1591,2531.87,1681.1,2486.81,1681.1,2386.19Z" transform="translate(-195.93 -202.49)"/><path class="cls-1" d="M2513.09,2371.17V2225.49c0-102.12-45.05-141.17-45.05-223.78,0-66.08,60.07-90.11,156.19-90.11s156.19,24,156.19,90.11c0,82.61-46.56,121.66-46.56,223.78v145.68c0,102.13,46.56,141.18,46.56,223.77,0,66.09-60.07,88.61-156.19,88.61S2468,2661,2468,2594.94C2468,2512.35,2513.09,2473.3,2513.09,2371.17Z" transform="translate(-195.93 -202.49)"/><path class="cls-2" d="M1446.13,529.89c0-342.57-407.67-437.66-562.14-182.82-120.15-60.85-283.23,53.74-231.74,182.82C493.48,499.21,240.3,674.19,343.3,940.45c-184.56,34.19-188.84,308.08-51.51,365.12-120.16,57-90.13,277.72,81.52,270.09-137.29,95-77.24,410.75,154.5,418.32-137.33,98.93-17.17,289.09,124.44,209.23-128.74,155.93,12.9,375.9,261.77,323,17.16,331.21,532.11,387.66,532.11,0Z" transform="translate(-195.93 -202.49)"/><polygon class="cls-3" points="487.81 861.9 455.44 861.9 455.44 543.41 817.8 181.02 840.71 203.95 487.81 556.84 487.81 861.9"/><polygon class="cls-3" points="626.64 861.9 594.28 861.9 594.28 592.37 800.42 386.19 823.35 409.08 626.64 605.78 626.64 861.9"/><polygon class="cls-3" points="1102.54 1171.58 809.05 878.09 308.3 878.09 308.3 845.72 822.48 845.72 1125.47 1148.69 1102.54 1171.58"/><polygon class="cls-3" points="988.47 2441.73 965.56 2418.86 1097.85 2286.58 1097.85 662.96 1130.21 662.96 1130.21 2300.03 988.47 2441.73"/><rect class="cls-3" x="510.73" y="1006.99" width="466.29" height="32.37"/><polygon class="cls-3" points="748.08 1589.02 715.69 1589.02 715.69 1261.6 965.56 1011.73 988.47 1034.62 748.08 1275.03 748.08 1589.02"/><polygon class="cls-3" points="579.23 1733.76 546.87 1733.76 546.87 1269.18 804.29 1011.73 827.22 1034.62 579.23 1282.61 579.23 1733.76"/><polygon class="cls-3" points="731.24 861.9 698.87 861.9 698.87 658.14 1021.15 335.82 1044.06 358.75 731.24 671.58 731.24 861.9"/><rect class="cls-3" x="1214.15" y="1479.57" width="32.4" height="225.09" transform="translate(-961.36 1133.8) rotate(-45)"/><polygon class="cls-3" points="840.05 1952.36 817.14 1929.49 1102.54 1644.03 1125.47 1666.91 840.05 1952.36"/><rect class="cls-3" x="912.92" y="1512.43" width="201.11" height="32.37"/><rect class="cls-3" x="873.84" y="489.89" width="240.18" height="32.37"/><polygon class="cls-3" points="832.25 2119.41 621.41 2119.41 621.41 2087.04 818.84 2087.04 1102.54 1803.27 1125.47 1826.16 832.25 2119.41"/><polygon class="cls-3" points="551.6 1600.5 277.36 1326.28 277.36 1123.73 309.75 1123.73 309.75 1312.82 574.47 1577.57 551.6 1600.5"/><path class="cls-3" d="M1073.77,395a48.6,48.6,0,1,1-48.6-48.59A48.6,48.6,0,0,1,1073.77,395Z" transform="translate(-195.93 -202.49)"/><path class="cls-3" d="M510.45,1064.39a48.6,48.6,0,1,1-48.61-48.59A48.6,48.6,0,0,1,510.45,1064.39Z" transform="translate(-195.93 -202.49)"/><path class="cls-3" d="M1277.15,549.79a48.6,48.6,0,1,1-48.61-48.63A48.58,48.58,0,0,1,1277.15,549.79Z" transform="translate(-195.93 -202.49)"/><path class="cls-3" d="M1358.57,907.83A48.62,48.62,0,1,1,1310,859.26,48.62,48.62,0,0,1,1358.57,907.83Z" transform="translate(-195.93 -202.49)"/><path class="cls-3" d="M755.27,1225.67a48.59,48.59,0,1,1-48.61-48.59A48.58,48.58,0,0,1,755.27,1225.67Z" transform="translate(-195.93 -202.49)"/><path class="cls-3" d="M538.1,1326.22a48.6,48.6,0,1,1-48.63-48.59A48.61,48.61,0,0,1,538.1,1326.22Z" transform="translate(-195.93 -202.49)"/><path class="cls-3" d="M807.55,1936.25A48.61,48.61,0,1,1,759,1887.67,48.58,48.58,0,0,1,807.55,1936.25Z" transform="translate(-195.93 -202.49)"/><path class="cls-3" d="M976.42,1791.5a48.62,48.62,0,1,1-48.62-48.58A48.64,48.64,0,0,1,976.42,1791.5Z" transform="translate(-195.93 -202.49)"/><path class="cls-3" d="M1199.39,1512.56a48.6,48.6,0,1,1-48.62-48.61A48.62,48.62,0,0,1,1199.39,1512.56Z" transform="translate(-195.93 -202.49)"/><path class="cls-3" d="M1073.08,2143.4a48.59,48.59,0,1,1-48.57-48.57A48.58,48.58,0,0,1,1073.08,2143.4Z" transform="translate(-195.93 -202.49)"/><path class="cls-3" d="M865.93,2305.71a48.6,48.6,0,1,1-48.59-48.59A48.58,48.58,0,0,1,865.93,2305.71Z" transform="translate(-195.93 -202.49)"/><path class="cls-3" d="M1221.55,2632.81a48.61,48.61,0,1,1-48.6-48.59A48.61,48.61,0,0,1,1221.55,2632.81Z" transform="translate(-195.93 -202.49)"/></svg>